<svg width="1307" height="451" viewBox="0 0 1307 451" fill="none" xmlns="http://www.w3.org/2000/svg">
<path opacity="0.2" d="M116.366 189.511H157.123L228.313 379H188.88L173.266 333.745H100.223L84.6086 379H45.1758L116.366 189.511ZM161.622 300.928L144.684 253.556L137.803 230.532H135.686L128.805 253.556L111.867 300.928H161.622ZM246.262 189.511H280.931V246.411L278.814 264.936H280.931C284.107 259.467 289.047 254.791 295.751 250.91C302.456 247.028 310.748 245.087 320.628 245.087C328.921 245.087 336.772 246.852 344.182 250.38C351.769 253.733 358.385 258.496 364.031 264.671C369.853 270.67 374.44 277.904 377.793 286.373C381.145 294.841 382.821 304.104 382.821 314.161C382.821 324.218 381.145 333.48 377.793 341.949C374.44 350.418 369.853 357.74 364.031 363.915C358.385 369.914 351.769 374.677 344.182 378.206C336.772 381.558 328.921 383.234 320.628 383.234C310.748 383.234 302.456 381.294 295.751 377.412C289.047 373.531 284.107 368.855 280.931 363.386H278.814V379H246.262V189.511ZM313.483 351.212C318.07 351.212 322.393 350.33 326.451 348.565C330.685 346.801 334.39 344.331 337.566 341.155C340.742 337.979 343.3 334.098 345.241 329.511C347.181 324.923 348.152 319.807 348.152 314.161C348.152 308.515 347.181 303.398 345.241 298.811C343.3 294.224 340.742 290.342 337.566 287.167C334.39 283.991 330.685 281.521 326.451 279.756C322.393 277.992 318.07 277.11 313.483 277.11C308.895 277.11 304.485 277.992 300.25 279.756C296.192 281.344 292.575 283.726 289.4 286.902C286.224 290.078 283.666 293.959 281.725 298.547C279.784 303.134 278.814 308.339 278.814 314.161C278.814 319.983 279.784 325.188 281.725 329.775C283.666 334.362 286.224 338.244 289.4 341.42C292.575 344.596 296.192 347.066 300.25 348.83C304.485 350.418 308.895 351.212 313.483 351.212ZM466.347 245.087C476.403 245.087 485.578 246.852 493.87 250.38C502.339 253.733 509.573 258.496 515.572 264.671C521.747 270.67 526.51 277.904 529.863 286.373C533.391 294.841 535.156 304.104 535.156 314.161C535.156 324.218 533.391 333.48 529.863 341.949C526.51 350.418 521.747 357.74 515.572 363.915C509.573 369.914 502.339 374.677 493.87 378.206C485.578 381.558 476.403 383.234 466.347 383.234C456.29 383.234 447.027 381.558 438.559 378.206C430.266 374.677 423.032 369.914 416.857 363.915C410.859 357.74 406.095 350.418 402.566 341.949C399.214 333.48 397.538 324.218 397.538 314.161C397.538 304.104 399.214 294.841 402.566 286.373C406.095 277.904 410.859 270.67 416.857 264.671C423.032 258.496 430.266 253.733 438.559 250.38C447.027 246.852 456.29 245.087 466.347 245.087ZM466.347 351.212C470.758 351.212 474.992 350.418 479.05 348.83C483.284 347.066 486.989 344.596 490.165 341.42C493.341 338.244 495.811 334.362 497.575 329.775C499.516 325.188 500.486 319.983 500.486 314.161C500.486 308.339 499.516 303.134 497.575 298.547C495.811 293.959 493.341 290.078 490.165 286.902C486.989 283.726 483.284 281.344 479.05 279.756C474.992 277.992 470.758 277.11 466.347 277.11C461.759 277.11 457.437 277.992 453.379 279.756C449.321 281.344 445.704 283.726 442.528 286.902C439.352 290.078 436.794 293.959 434.853 298.547C433.089 303.134 432.207 308.339 432.207 314.161C432.207 319.983 433.089 325.188 434.853 329.775C436.794 334.362 439.352 338.244 442.528 341.42C445.704 344.596 449.321 347.066 453.379 348.83C457.437 350.418 461.759 351.212 466.347 351.212ZM645.856 362.062H643.738C639.68 368.59 634.211 373.795 627.33 377.677C620.449 381.382 612.598 383.234 603.776 383.234C587.368 383.234 575.106 378.206 566.99 368.149C559.051 358.093 555.081 344.684 555.081 327.923V249.322H589.75V323.688C589.75 333.039 591.779 340.008 595.837 344.596C600.071 349.006 606.158 351.212 614.098 351.212C618.861 351.212 623.007 350.241 626.536 348.301C630.241 346.183 633.329 343.449 635.799 340.097C638.445 336.568 640.386 332.51 641.621 327.923C643.033 323.159 643.738 318.131 643.738 312.838V249.322H678.407V379H645.856V362.062ZM723.689 278.963H700.929V249.322H723.689V209.624H758.358V249.322H790.116V278.963H758.358V329.246C758.358 332.245 758.623 335.068 759.152 337.715C759.858 340.185 761.093 342.302 762.857 344.066C765.327 346.889 768.856 348.301 773.443 348.301C776.443 348.301 778.825 348.036 780.589 347.507C782.353 346.801 784.029 345.919 785.617 344.86L795.409 375.295C791.351 377.236 786.941 378.647 782.177 379.529C777.59 380.588 772.473 381.117 766.827 381.117C760.299 381.117 754.389 380.147 749.096 378.206C743.979 376.089 739.656 373.266 736.128 369.737C727.835 361.798 723.689 350.506 723.689 335.862V278.963ZM963.487 362.062H961.369C957.311 368.59 951.842 373.795 944.961 377.677C938.08 381.382 930.229 383.234 921.407 383.234C904.999 383.234 892.737 378.206 884.621 368.149C876.682 358.093 872.712 344.684 872.712 327.923V249.322H907.381V323.688C907.381 333.039 909.41 340.008 913.468 344.596C917.702 349.006 923.789 351.212 931.729 351.212C936.492 351.212 940.638 350.241 944.167 348.301C947.872 346.183 950.96 343.449 953.43 340.097C956.076 336.568 958.017 332.51 959.252 327.923C960.664 323.159 961.369 318.131 961.369 312.838V249.322H996.038V379H963.487V362.062ZM1075.79 383.234C1067.32 383.234 1059.73 382.176 1053.03 380.059C1046.5 377.941 1040.76 375.207 1035.82 371.854C1031.06 368.326 1027 364.356 1023.65 359.945C1020.3 355.358 1017.74 350.771 1015.98 346.183L1046.94 332.951C1049.94 339.655 1053.91 344.684 1058.85 348.036C1063.97 351.212 1069.61 352.8 1075.79 352.8C1082.14 352.8 1087.17 351.653 1090.87 349.359C1094.58 347.066 1096.43 344.331 1096.43 341.155C1096.43 337.626 1094.84 334.804 1091.67 332.686C1088.67 330.393 1083.37 328.364 1075.79 326.599L1057.53 322.63C1053.47 321.748 1049.23 320.336 1044.82 318.395C1040.59 316.455 1036.71 313.984 1033.18 310.985C1029.65 307.986 1026.74 304.369 1024.44 300.134C1022.15 295.9 1021 290.96 1021 285.314C1021 278.963 1022.33 273.317 1024.97 268.377C1027.8 263.436 1031.59 259.29 1036.35 255.938C1041.12 252.409 1046.68 249.763 1053.03 247.999C1059.55 246.058 1066.52 245.087 1073.93 245.087C1086.28 245.087 1097.31 247.557 1107.02 252.498C1116.72 257.261 1123.86 264.936 1128.45 275.522L1098.55 287.696C1096.08 282.579 1092.46 278.874 1087.7 276.581C1082.93 274.287 1078.17 273.14 1073.4 273.14C1068.46 273.14 1064.14 274.199 1060.44 276.316C1056.73 278.257 1054.88 280.815 1054.88 283.991C1054.88 286.99 1056.38 289.372 1059.38 291.136C1062.55 292.901 1066.79 294.489 1072.08 295.9L1091.93 300.664C1105.16 303.84 1114.95 308.956 1121.31 316.013C1127.83 322.894 1131.1 331.098 1131.1 340.626C1131.1 346.272 1129.78 351.653 1127.13 356.769C1124.48 361.886 1120.69 366.473 1115.75 370.531C1110.99 374.413 1105.16 377.5 1098.28 379.794C1091.58 382.088 1084.08 383.234 1075.79 383.234Z" fill="#C5BDBD"/>
<circle cx="33" cy="33" r="29.3333" stroke="#C40032" stroke-width="7.33333"/>
<path d="M1228.24 219.055L1260.5 174.063L1292.76 219.055H1228.24Z" stroke="#C40032" stroke-width="8.23009"/>
</svg>
