<svg width="100" height="60" viewBox="0 0 100 60" fill="none" xmlns="http://www.w3.org/2000/svg">
<g clip-path="url(#clip0_2260_6282)">
<path d="M33.3007 37.2858H28.9583V55.7951H33.3007V37.2858Z" fill="#00A0DF"/>
<path d="M68.3199 42.5942C67.2013 41.9381 65.9469 41.5962 64.6726 41.6C61.8576 41.6 59.9108 43.7109 59.9108 46.5388C59.9108 49.287 61.7775 51.4776 64.6726 51.4776C65.9449 51.48 67.1979 51.1439 68.3199 50.4994V55.4669C67.0381 55.8924 65.7045 56.1151 64.363 56.1263C59.4737 56.1263 55.1923 52.5036 55.1923 46.5388C55.1923 41.0089 59.072 36.9623 64.363 36.9623C65.7055 36.9661 67.0396 37.1884 68.3199 37.6219V42.5942Z" fill="#00A0DF"/>
<path d="M22.9892 42.5942C21.8706 41.9392 20.6167 41.5973 19.3431 41.6C16.5281 41.6 14.5799 43.7109 14.5799 46.5388C14.5799 49.287 16.4437 51.4776 19.3431 51.4776C20.6147 51.4786 21.867 51.1427 22.9892 50.4994V55.4669C21.7037 55.894 20.367 56.1162 19.0216 56.1263C14.1458 56.1263 9.86267 52.5036 9.86267 46.5388C9.86267 41.0089 13.7399 36.9623 19.0216 36.9623C20.3675 36.9659 21.7051 37.1882 22.9892 37.6219V42.5942Z" fill="#00A0DF"/>
<path d="M91.0781 46.5388C91.0781 51.8329 87.278 56.1264 81.9875 56.1264C76.6966 56.1264 72.8965 51.825 72.8965 46.5388C72.8965 41.2527 76.6921 36.9639 81.9875 36.9639C87.2825 36.9639 91.0781 41.2511 91.0781 46.5388ZM81.9875 41.6717C79.408 41.6717 77.4925 43.8543 77.4925 46.5388C77.4925 49.2233 79.408 51.4139 81.9875 51.4139C84.5666 51.4139 86.4825 49.2344 86.4825 46.5388C86.4825 43.8432 84.5561 41.6717 81.9875 41.6717Z" fill="#00A0DF"/>
<path d="M49.774 41.4949C49.7118 41.4726 47.8762 40.9277 46.3798 40.9277C44.636 40.9277 43.6938 41.5571 43.6938 42.4492C43.6938 43.5644 44.9708 43.9659 45.682 44.2097L46.8806 44.6207C49.6955 45.5766 50.983 47.6589 50.983 49.9116C50.983 54.565 47.1784 56.1248 43.8552 56.1248C42.2803 56.1093 40.7099 55.9407 39.1632 55.6216V51.3598C39.5454 51.4618 41.3663 52.0465 43.2641 52.0465C45.4286 52.0465 46.4198 51.3694 46.4198 50.3147C46.4198 49.3795 45.559 48.841 44.4938 48.4793C44.2256 48.3837 43.8301 48.2499 43.5604 48.1528C41.1484 47.3339 39.1246 45.8044 39.1246 42.736C39.1246 39.2756 41.5352 36.9464 45.5427 36.9464C46.9696 36.9677 48.3894 37.166 49.774 37.5375V41.4949Z" fill="#00A0DF"/>
<path d="M5.25348 17.395C5.25348 16.7798 5.02621 16.1897 4.62167 15.7548C4.21713 15.3197 3.66845 15.0753 3.09634 15.0753C2.52424 15.0753 1.97556 15.3197 1.57102 15.7548C1.16648 16.1897 0.939209 16.7798 0.939209 17.395V22.2526C0.939209 22.8678 1.16648 23.4578 1.57102 23.8928C1.97556 24.3278 2.52424 24.5722 3.09634 24.5722C3.66845 24.5722 4.21713 24.3278 4.62167 23.8928C5.02621 23.4578 5.25348 22.8678 5.25348 22.2526V17.395Z" fill="#00A0DF"/>
<path d="M17.1015 11.0175C17.0867 10.413 16.8531 9.83866 16.4503 9.4167C16.0475 8.99478 15.5074 8.75867 14.9451 8.75867C14.3828 8.75867 13.8427 8.99478 13.4398 9.4167C13.0371 9.83866 12.8034 10.413 12.7887 11.0175V22.2525C12.8034 22.857 13.0371 23.4314 13.4398 23.8534C13.8427 24.2753 14.3828 24.5114 14.9451 24.5114C15.5074 24.5114 16.0475 24.2753 16.4503 23.8534C16.8531 23.4314 17.0867 22.857 17.1015 22.2525V11.0175Z" fill="#00A0DF"/>
<path d="M28.9405 2.2934C28.9405 1.67861 28.7135 1.089 28.3092 0.654285C27.9049 0.219565 27.3566 -0.0246582 26.7849 -0.0246582C26.2132 -0.0246582 25.6649 0.219565 25.2606 0.654285C24.8564 1.089 24.6293 1.67861 24.6293 2.2934V26.8712C24.6293 27.486 24.8564 28.0755 25.2606 28.5103C25.6649 28.945 26.2132 29.1892 26.7849 29.1892C27.3566 29.1892 27.9049 28.945 28.3092 28.5103C28.7135 28.0755 28.9405 27.486 28.9405 26.8712V2.2934Z" fill="#00A0DF"/>
<path d="M40.7929 11.0176C40.7781 10.4135 40.5447 9.8395 40.1422 9.41786C39.7396 8.99621 39.1999 8.76025 38.6379 8.76025C38.076 8.76025 37.5363 8.99621 37.1338 9.41786C36.7313 9.8395 36.4978 10.4135 36.483 11.0176V22.2526C36.4978 22.8566 36.7313 23.4306 37.1338 23.8523C37.5363 24.2739 38.076 24.5099 38.6379 24.5099C39.1999 24.5099 39.7396 24.2739 40.1422 23.8523C40.5447 23.4306 40.7781 22.8566 40.7929 22.2526V11.0176Z" fill="#00A0DF"/>
<path d="M52.6202 17.3951C52.5993 16.7973 52.3639 16.2313 51.9636 15.8162C51.5629 15.4011 51.0283 15.1692 50.4718 15.1692C49.9155 15.1692 49.3809 15.4011 48.9803 15.8162C48.5796 16.2313 48.3442 16.7973 48.3236 17.3951V22.2527C48.3129 22.5632 48.3605 22.8729 48.4637 23.1633C48.5667 23.4536 48.7233 23.7186 48.9238 23.9424C49.1244 24.1663 49.3648 24.3442 49.6308 24.4659C49.8968 24.5875 50.1828 24.6502 50.4718 24.6502C50.761 24.6502 51.0467 24.5875 51.313 24.4659C51.5789 24.3442 51.8193 24.1663 52.0199 23.9424C52.2205 23.7186 52.3768 23.4536 52.4798 23.1633C52.5834 22.8729 52.6307 22.5632 52.6202 22.2527V17.3951Z" fill="#00A0DF"/>
<path d="M64.4741 11.0177C64.4895 10.7041 64.4452 10.3904 64.3441 10.0958C64.2431 9.80122 64.0873 9.53181 63.8862 9.30404C63.6856 9.07622 63.4432 8.89481 63.1748 8.77089C62.9065 8.64692 62.6178 8.58301 62.3256 8.58301C62.0339 8.58301 61.7447 8.64692 61.4764 8.77089C61.2081 8.89481 60.9662 9.07622 60.7651 9.30404C60.5645 9.53181 60.4087 9.80122 60.3076 10.0958C60.2066 10.3904 60.1622 10.7041 60.1777 11.0177V22.2527C60.1622 22.5662 60.2066 22.8798 60.3076 23.1745C60.4087 23.4691 60.5645 23.7384 60.7651 23.9663C60.9662 24.194 61.2081 24.3754 61.4764 24.4994C61.7447 24.6234 62.0339 24.6873 62.3256 24.6873C62.6178 24.6873 62.9065 24.6234 63.1748 24.4994C63.4432 24.3754 63.6856 24.194 63.8862 23.9663C64.0873 23.7384 64.2431 23.4691 64.3441 23.1745C64.4452 22.8798 64.4895 22.5662 64.4741 22.2527V11.0177Z" fill="#00A0DF"/>
<path d="M76.3219 2.29349C76.3328 1.9829 76.285 1.67319 76.182 1.38285C76.0789 1.09251 75.9221 0.827506 75.722 0.603697C75.5214 0.379889 75.281 0.201863 75.0147 0.0802657C74.7488 -0.0413316 74.4626 -0.104004 74.1739 -0.104004C73.8847 -0.104004 73.5985 -0.0413316 73.3327 0.0802657C73.0668 0.201863 72.8264 0.379889 72.6258 0.603697C72.4252 0.827506 72.2689 1.09251 72.1653 1.38285C72.0623 1.67319 72.015 1.9829 72.0255 2.29349V26.8712C72.015 27.1819 72.0623 27.4916 72.1653 27.7819C72.2689 28.0723 72.4252 28.3372 72.6258 28.561C72.8264 28.7848 73.0668 28.9629 73.3327 29.0845C73.5985 29.2061 73.8847 29.2687 74.1739 29.2687C74.4626 29.2687 74.7488 29.2061 75.0147 29.0845C75.281 28.9629 75.5214 28.7848 75.722 28.561C75.9221 28.3372 76.0789 28.0723 76.182 27.7819C76.285 27.4916 76.3328 27.1819 76.3219 26.8712V2.29349Z" fill="#00A0DF"/>
<path d="M88.1701 11.0176C88.1552 10.4114 87.9207 9.83544 87.517 9.41229C87.1133 8.9892 86.5717 8.75244 86.0077 8.75244C85.4437 8.75244 84.9021 8.9892 84.4984 9.41229C84.0942 9.83544 83.8603 10.4114 83.8453 11.0176V22.2526C83.8603 22.8587 84.0942 23.4347 84.4984 23.8578C84.9021 24.281 85.4437 24.5177 86.0077 24.5177C86.5717 24.5177 87.1133 24.281 87.517 23.8578C87.9207 23.4347 88.1552 22.8587 88.1701 22.2526V11.0176Z" fill="#00A0DF"/>
<path d="M99.9985 17.3951C99.9781 16.7973 99.7426 16.2313 99.3419 15.8162C98.9412 15.4011 98.4066 15.1692 97.8505 15.1692C97.294 15.1692 96.7594 15.4011 96.3587 15.8162C95.958 16.2313 95.7225 16.7973 95.7021 17.3951V22.2527C95.6911 22.5632 95.7389 22.8729 95.842 23.1633C95.945 23.4536 96.1018 23.7186 96.3024 23.9424C96.503 24.1663 96.7435 24.3442 97.0093 24.4659C97.2751 24.5875 97.5613 24.6502 97.8505 24.6502C98.1393 24.6502 98.4255 24.5875 98.6913 24.4659C98.9576 24.3442 99.198 24.1663 99.3982 23.9424C99.5988 23.7186 99.7556 23.4536 99.8586 23.1633C99.9617 22.8729 100.009 22.5632 99.9985 22.2527V17.3951Z" fill="#00A0DF"/>
<path d="M97.5111 53.3577V53.6459H96.7495V55.7951H96.4279V53.6459H95.6564V53.3577H97.5111Z" fill="#00A0DF"/>
<path d="M97.6722 53.3577H98.166L98.843 55.3524H98.859L99.5155 53.3577H99.9984V55.7951H99.6723V53.8006H99.6639L98.9735 55.7951H98.6708L97.9998 53.8006H97.9923V55.7951H97.6722V53.3577Z" fill="#00A0DF"/>
</g>
<defs>
<clipPath id="clip0_2260_6282">
<rect width="100" height="60" fill="white"/>
</clipPath>
</defs>
</svg>
