<svg width="36" height="32" viewBox="0 0 36 32" fill="none" xmlns="http://www.w3.org/2000/svg">
<path d="M35.1002 12.9094C35.1002 6.29835 28.6866 0.919952 20.8036 0.919952C12.9204 0.919952 6.50684 6.2984 6.50684 12.9094C6.50684 19.5204 12.9204 24.8989 20.8036 24.8989C21.4664 24.8989 22.1315 24.8605 22.7854 24.7847C25.8218 26.7136 28.0633 27.7694 29.4525 27.9237C29.5008 27.929 29.5495 27.9317 29.5971 27.9317C30.0433 27.9317 30.4564 27.7093 30.7023 27.3364C30.9772 26.9192 30.9952 26.39 30.7503 25.9579C30.7389 25.9374 29.6668 23.9813 29.9761 22.1128C33.2378 19.8303 35.1002 16.4946 35.1002 12.9094ZM16.9209 14.7201C15.7511 14.7201 14.8032 13.7719 14.8032 12.6024C14.8032 11.4327 15.7511 10.4846 16.9209 10.4846C18.0904 10.4846 19.0388 11.4328 19.0388 12.6024C19.0389 13.7719 18.0905 14.7201 16.9209 14.7201ZM24.6866 14.7201C23.5167 14.7201 22.5685 13.7719 22.5685 12.6024C22.5685 11.4327 23.5167 10.4846 24.6866 10.4846C25.8561 10.4846 26.8043 11.4328 26.8043 12.6024C26.8043 13.7719 25.8561 14.7201 24.6866 14.7201Z" fill="white"/>
<path d="M9.52626 22.5018C8.10769 21.3272 6.98946 19.9523 6.20309 18.4154C5.37393 16.795 4.95358 15.0713 4.95358 13.2922C4.95358 11.5131 5.37399 9.78948 6.20309 8.1691C6.26657 8.04508 6.33303 7.92259 6.40073 7.80066C2.89914 9.80678 0.600342 13.155 0.600342 16.9399C0.600342 20.3403 2.43211 23.4932 5.63222 25.6139C6.22327 27.9375 4.85172 30.3958 4.83723 30.4209C4.75549 30.565 4.76152 30.7429 4.85273 30.8813C4.93492 31.006 5.0737 31.0798 5.221 31.0798C5.23729 31.0798 5.25353 31.0788 5.26999 31.077C6.87103 30.8992 9.69042 29.2719 11.8263 27.8999C12.5457 27.9975 13.281 28.0469 14.0147 28.0469C16.8206 28.0469 19.4275 27.3294 21.5833 26.105C21.1017 26.1435 20.6165 26.1641 20.1329 26.1641C16.1455 26.1641 12.3787 24.8635 9.52626 22.5018Z" fill="white"/>
</svg>
