<svg width="218" height="44" viewBox="0 0 218 44" fill="none" xmlns="http://www.w3.org/2000/svg">
<rect x="7.90234" y="6.9856" width="25.6827" height="3.16095" fill="#D50036"/>
<rect y="13.7024" width="25.6827" height="3.16095" fill="#D50036"/>
<rect x="7.90234" y="20.4194" width="25.6827" height="3.16095" fill="#D50036"/>
<rect x="14.2242" y="27.1367" width="25.6827" height="3.16095" fill="#D50036"/>
<rect x="7.90234" y="33.8538" width="25.6827" height="3.16095" fill="#D50036"/>
<path d="M62.3982 28.9643C62.2236 29.9685 61.787 30.9071 61.0884 31.7803C60.4117 32.6535 59.4949 33.3629 58.3379 33.9087C57.2028 34.4326 55.8712 34.6945 54.3431 34.6945C52.7059 34.6945 51.2979 34.4108 50.1191 33.8432C48.9403 33.2538 48.0453 32.457 47.4341 31.4529C46.8447 30.4487 46.5609 29.3136 46.5828 28.0475H50.5448C50.5011 29.0516 50.7958 29.9139 51.4289 30.6343C52.0838 31.3546 53.077 31.7148 54.4086 31.7148C55.6529 31.7148 56.6352 31.3437 57.3556 30.6015C58.076 29.8593 58.4362 28.9425 58.4362 27.851C58.4362 27.1088 58.2397 26.4976 57.8468 26.0173C57.4538 25.5153 56.9517 25.1114 56.3405 24.8058C55.7511 24.4784 54.9434 24.1182 53.9175 23.7252C52.695 23.245 51.7018 22.8084 50.9377 22.4155C50.1955 22.0007 49.5625 21.4222 49.0386 20.68C48.5147 19.9378 48.2527 18.9882 48.2527 17.8313C48.2527 17.3292 48.2964 16.8271 48.3837 16.3251C48.6675 14.7315 49.5297 13.4545 50.9705 12.494C52.4331 11.5335 54.2122 11.0532 56.3078 11.0532C58.7745 11.0532 60.63 11.6317 61.8743 12.7887C63.1404 13.9238 63.8062 15.3973 63.8717 17.2091H59.8442C59.8442 16.336 59.5495 15.5938 58.9601 14.9825C58.3707 14.3495 57.4647 14.033 56.2423 14.033C55.1072 14.033 54.1794 14.3386 53.459 14.9498C52.7387 15.5392 52.3785 16.3905 52.3785 17.5038C52.3785 18.1806 52.564 18.7481 52.9351 19.2065C53.3281 19.665 53.8083 20.0361 54.3759 20.3198C54.9434 20.6036 55.7293 20.942 56.7335 21.3349C57.9559 21.7933 58.9491 22.2408 59.7132 22.6774C60.499 23.0922 61.1648 23.6816 61.7106 24.4456C62.2563 25.2096 62.5292 26.192 62.5292 27.3926C62.5292 27.9383 62.4855 28.4622 62.3982 28.9643ZM85.1283 16.4233L81.9521 34.4653H78.1865L78.8742 30.536C78.1538 31.8676 77.1605 32.9045 75.8944 33.6467C74.6502 34.3671 73.2858 34.7273 71.8014 34.7273C70.0114 34.7273 68.6034 34.2252 67.5774 33.2211C66.5514 32.2169 66.0384 30.7762 66.0384 28.8988C66.0384 28.2876 66.1039 27.6218 66.2349 26.9014L68.1013 16.4233H71.8342L70.0332 26.5085C69.9459 26.9451 69.9022 27.3926 69.9022 27.851C69.9022 29.0735 70.2406 30.0121 70.9173 30.667C71.6159 31.3001 72.5764 31.6166 73.7988 31.6166C75.2832 31.6166 76.5493 31.1363 77.5971 30.1758C78.6449 29.2153 79.3326 27.8183 79.66 25.9846V26.1156L81.3627 16.4233H85.1283ZM86.0991 34.4653L90.3886 10.2346H94.1214L92.2878 20.6145C92.9863 19.2829 93.9795 18.2133 95.2675 17.4056C96.5772 16.5979 98.0507 16.1941 99.6879 16.1941C101.74 16.1941 103.366 16.8162 104.567 18.0605C105.789 19.3048 106.401 21.0184 106.401 23.2013C106.401 23.8999 106.335 24.6421 106.204 25.4279C105.877 27.3271 105.233 28.9752 104.272 30.3723C103.333 31.7694 102.177 32.839 100.801 33.5812C99.4478 34.3234 97.9852 34.6945 96.4135 34.6945C94.7763 34.6945 93.4556 34.2907 92.4515 33.483C91.4473 32.6753 90.8252 31.6057 90.5851 30.2741L89.8319 34.4653H86.0991ZM95.8569 31.3874C97.5159 31.3874 98.9348 30.8635 100.114 29.8157C101.314 28.746 102.078 27.2834 102.406 25.4279C102.493 24.9695 102.537 24.4893 102.537 23.9872C102.537 22.5683 102.133 21.4659 101.325 20.68C100.517 19.8723 99.4042 19.4685 97.9852 19.4685C96.3699 19.4685 94.9509 20.0142 93.7285 21.1057C92.5061 22.1972 91.7311 23.6379 91.4037 25.4279C91.3163 25.8645 91.2727 26.312 91.2727 26.7704C91.2727 28.1894 91.6874 29.3136 92.517 30.1431C93.3465 30.9726 94.4598 31.3874 95.8569 31.3874ZM128.201 16.4233L125.025 34.4653H121.259L121.947 30.536C121.226 31.8676 120.233 32.9045 118.967 33.6467C117.723 34.3671 116.358 34.7273 114.874 34.7273C113.084 34.7273 111.676 34.2252 110.65 33.2211C109.624 32.2169 109.111 30.7762 109.111 28.8988C109.111 28.2876 109.177 27.6218 109.308 26.9014L111.174 16.4233H114.907L113.106 26.5085C113.019 26.9451 112.975 27.3926 112.975 27.851C112.975 29.0735 113.313 30.0121 113.99 30.667C114.689 31.3001 115.649 31.6166 116.871 31.6166C118.356 31.6166 119.622 31.1363 120.67 30.1758C121.718 29.2153 122.405 27.8183 122.733 25.9846V26.1156L124.435 16.4233H128.201ZM135.753 19.9597C136.583 18.7809 137.62 17.8531 138.864 17.1764C140.13 16.4779 141.505 16.1286 142.99 16.1286L142.269 20.1889H141.156C139.519 20.1889 138.133 20.5927 136.998 21.4004C135.863 22.1863 135.142 23.496 134.837 25.3297L134.804 25.297L133.199 34.4653H129.434L132.61 16.4233H136.375L135.753 19.9597ZM142.25 34.4653L146.54 10.2346H150.273L148.439 20.6145C149.137 19.2829 150.131 18.2133 151.419 17.4056C152.728 16.5979 154.202 16.1941 155.839 16.1941C157.891 16.1941 159.517 16.8162 160.718 18.0605C161.94 19.3048 162.552 21.0184 162.552 23.2013C162.552 23.8999 162.486 24.6421 162.355 25.4279C162.028 27.3271 161.384 28.9752 160.423 30.3723C159.485 31.7694 158.328 32.839 156.952 33.5812C155.599 34.3234 154.136 34.6945 152.565 34.6945C150.927 34.6945 149.607 34.2907 148.603 33.483C147.598 32.6753 146.976 31.6057 146.736 30.2741L145.983 34.4653H142.25ZM152.008 31.3874C153.667 31.3874 155.086 30.8635 156.265 29.8157C157.465 28.746 158.229 27.2834 158.557 25.4279C158.644 24.9695 158.688 24.4893 158.688 23.9872C158.688 22.5683 158.284 21.4659 157.476 20.68C156.669 19.8723 155.555 19.4685 154.136 19.4685C152.521 19.4685 151.102 20.0142 149.88 21.1057C148.657 22.1972 147.882 23.6379 147.555 25.4279C147.468 25.8645 147.424 26.312 147.424 26.7704C147.424 28.1894 147.839 29.3136 148.668 30.1431C149.498 30.9726 150.611 31.3874 152.008 31.3874ZM175.053 16.1941C176.734 16.1941 178.087 16.5979 179.113 17.4056C180.161 18.2133 180.805 19.2829 181.045 20.6145L181.798 16.4233H185.531L182.322 34.4653H178.589L179.342 30.2741C178.644 31.6057 177.64 32.6753 176.33 33.483C175.042 34.2907 173.579 34.6945 171.942 34.6945C169.846 34.6945 168.198 34.0615 166.998 32.7954C165.797 31.5293 165.197 29.7829 165.197 27.5563C165.197 26.7268 165.273 25.9191 165.426 25.1332C165.753 23.2996 166.376 21.7169 167.292 20.3853C168.231 19.0319 169.366 17.995 170.698 17.2746C172.051 16.5543 173.503 16.1941 175.053 16.1941ZM175.773 19.4685C174.114 19.4685 172.684 20.0033 171.484 21.073C170.305 22.1426 169.552 23.5943 169.224 25.4279C169.137 25.8864 169.093 26.3775 169.093 26.9014C169.093 28.3203 169.497 29.4227 170.305 30.2086C171.113 30.9944 172.226 31.3874 173.645 31.3874C175.238 31.3874 176.646 30.8526 177.869 29.7829C179.091 28.6914 179.866 27.2398 180.194 25.4279C180.281 24.9913 180.325 24.5329 180.325 24.0527C180.325 22.6556 179.91 21.5423 179.08 20.7128C178.251 19.8833 177.148 19.4685 175.773 19.4685ZM200.16 16.1286C201.928 16.1286 203.325 16.6307 204.351 17.6348C205.377 18.6171 205.89 20.0361 205.89 21.8916C205.89 22.5464 205.824 23.2341 205.693 23.9544L203.86 34.4653H200.127L201.895 24.3474C201.982 23.9326 202.026 23.496 202.026 23.0376C202.026 21.8152 201.677 20.8874 200.978 20.2544C200.302 19.5995 199.352 19.272 198.13 19.272C196.645 19.272 195.379 19.7523 194.331 20.7128C193.283 21.6514 192.596 23.0376 192.268 24.8713V24.7731L190.566 34.4653H186.8L189.976 16.4233H193.742L193.054 20.4181C193.753 19.0428 194.724 17.9841 195.968 17.2419C197.234 16.4997 198.632 16.1286 200.16 16.1286Z" fill="white"/>
</svg>
