<svg width="245" height="52" viewBox="0 0 245 52" fill="none" xmlns="http://www.w3.org/2000/svg">
<g clip-path="url(#clip0_2260_6263)">
<path d="M0 0H24.8762C24.8762 8.29205 24.8762 16.5841 24.8762 24.8762H0V0Z" fill="#F25022"/>
<path d="M27.4161 0H52.2922C52.2922 8.29205 52.2922 16.5841 52.2922 24.8762H27.4176C27.4176 16.5841 27.4176 8.29205 27.4176 0H27.4161Z" fill="#80BA01"/>
<path d="M224.326 9.4782C226.62 7.98413 229.582 7.84668 232.167 8.55785C232.189 10.0938 232.167 11.6311 232.178 13.1685C230.949 12.6277 229.505 12.2721 228.212 12.8055C227.187 13.2119 226.578 14.2637 226.419 15.3155C226.227 16.6497 226.352 18.0048 226.319 19.3495C228.943 19.3495 231.566 19.3495 234.19 19.3495C234.209 17.6462 234.169 15.9415 234.212 14.2383C235.996 13.7303 237.761 13.1611 239.536 12.6262C239.551 14.8673 239.515 17.1159 239.555 19.3614C241.329 19.336 243.104 19.3614 244.879 19.3495V23.7181C243.098 23.6449 241.315 23.6987 239.534 23.6927C239.534 26.2042 239.534 28.7158 239.534 31.2288C239.563 32.6198 239.46 34.0182 239.622 35.4047C239.721 36.2219 240.018 37.1273 240.785 37.5502C242.068 38.2688 243.697 37.9551 244.876 37.1662V41.5782C243.338 42.246 241.62 42.4492 239.957 42.3252C238.379 42.2087 236.745 41.6349 235.715 40.3829C234.52 38.965 234.221 37.0452 234.196 35.2493C234.183 31.3946 234.196 27.5399 234.196 23.6838C231.57 23.6838 228.946 23.6838 226.322 23.6838C226.322 29.7337 226.322 35.7832 226.322 41.8321H220.944C220.944 35.7842 220.944 29.7367 220.944 23.6897C219.696 23.6658 218.447 23.6897 217.2 23.6703C217.2 22.2345 217.21 20.7972 217.2 19.3599C218.441 19.3315 219.684 19.3435 220.935 19.3525C221.026 17.4431 220.734 15.4784 221.305 13.6182C221.785 11.9173 222.862 10.4467 224.34 9.4767L224.326 9.4782Z" fill="#777777"/>
<path d="M109.137 9.79223C110.222 9.62789 111.396 9.99841 112.115 10.847C112.528 11.3212 112.785 11.9109 112.852 12.5363C112.919 13.1616 112.792 13.7924 112.488 14.3432C111.798 15.5683 110.247 16.136 108.902 15.8372C107.505 15.5862 106.341 14.2879 106.404 12.8401C106.364 11.3162 107.638 9.95807 109.132 9.78775L109.137 9.79223Z" fill="#777777"/>
<path d="M67.9052 10.4585H75.7296C78.1649 16.6429 80.6052 22.8249 83.0505 29.0043C83.6736 30.5507 84.2562 32.1149 84.9091 33.6493C88.0467 25.922 91.2201 18.2142 94.3217 10.4764C96.8303 10.4361 99.3403 10.4674 101.85 10.4615C101.844 20.9199 101.844 31.3784 101.85 41.8368C100.04 41.8368 98.2302 41.8518 96.4209 41.8264C96.4403 34.1095 96.4209 26.3927 96.4299 18.6684C96.4299 18.3217 96.4209 17.9751 96.397 17.6225C96.2914 17.7831 96.197 17.9508 96.1146 18.1245C93.0055 26.0236 89.8396 33.9003 86.7453 41.8069C85.4575 41.8532 84.1681 41.8069 82.8787 41.8308C79.671 33.9317 76.5035 26.0147 73.3167 18.1096C73.233 17.9452 73.1434 17.7854 73.0463 17.6315C72.9805 21.0126 73.0358 24.3966 73.0179 27.7777C73.0179 32.4591 73.0179 37.1405 73.0179 41.8219C71.3102 41.8219 69.6025 41.8219 67.8962 41.8219C67.8962 31.3634 67.8962 20.905 67.8962 10.4465L67.9052 10.4585Z" fill="#777777"/>
<path d="M123.943 19.3259C126.558 18.5972 129.324 18.6055 131.935 19.3498C132.472 19.4959 132.987 19.7108 133.469 19.9893C133.439 21.703 133.469 23.4256 133.453 25.1333C131.718 23.8081 129.517 22.9684 127.312 23.2463C126.436 23.3259 125.585 23.5877 124.816 24.0151C124.046 24.4424 123.374 25.0259 122.843 25.728C121.499 27.482 121.186 29.8113 121.418 31.9567C121.591 33.6361 122.286 35.3139 123.592 36.427C124.949 37.6327 126.85 38.06 128.625 37.921C130.379 37.7193 132.035 36.9768 133.453 35.9399C133.468 37.564 133.445 39.188 133.465 40.8121C131.265 42.1209 128.628 42.4555 126.111 42.3345C123.535 42.1985 120.967 41.2229 119.102 39.4121C117.076 37.4594 115.977 34.6744 115.847 31.885C115.715 28.985 116.305 25.9596 117.974 23.5377C119.373 21.4714 121.56 20.0087 123.951 19.3214L123.943 19.3259Z" fill="#777777"/>
<path d="M160.394 18.9388C162.975 18.6101 165.699 18.7565 168.096 19.8472C170.185 20.8103 171.854 22.4977 172.794 24.5968C173.791 26.8081 174.033 29.2912 173.864 31.6892C173.698 34.0304 172.968 36.376 171.499 38.2361C170.005 40.2113 167.742 41.55 165.323 42.0475C163.245 42.48 161.101 42.48 159.024 42.0475C156.55 41.5186 154.259 40.0828 152.808 37.9941C151.105 35.5737 150.621 32.4959 150.838 29.596C150.987 27.1352 151.749 24.6551 153.321 22.7233C155.042 20.5614 157.682 19.2869 160.394 18.9433V18.9388Z" fill="#777777"/>
<path d="M182.712 18.9837C185.2 18.5459 187.804 18.8672 190.158 19.7591C190.158 21.4026 190.158 23.0565 190.158 24.7045C188.502 23.564 186.527 22.9796 184.517 23.0356C183.511 23.0744 182.406 23.5002 181.947 24.4564C181.583 25.4022 181.835 26.6423 182.727 27.2085C184.252 28.229 186.072 28.6622 187.657 29.5766C188.902 30.2758 190.109 31.1902 190.74 32.508C191.924 34.9762 191.422 38.2377 189.34 40.0784C187.351 41.937 184.487 42.451 181.853 42.3523C179.982 42.2313 178.103 41.8623 176.383 41.0973C176.383 39.3627 176.373 37.6296 176.392 35.8965C177.837 36.9619 179.507 37.6825 181.273 38.0031C182.503 38.2033 183.84 38.2123 184.986 37.6625C186.083 37.1171 186.28 35.5588 185.628 34.6056C185.019 33.8705 184.124 33.4657 183.28 33.0682C181.695 32.3556 180.029 31.7594 178.636 30.6912C177.638 29.9311 176.925 28.856 176.615 27.6403C176.184 25.8474 176.316 23.8364 177.362 22.2736C178.557 20.4524 180.613 19.3602 182.715 18.9867L182.712 18.9837Z" fill="#777777"/>
<path d="M203.275 18.9312C205.964 18.5981 208.803 18.7818 211.261 20.0159C213.402 21.1175 215.052 22.9841 215.882 25.2452C216.529 26.9529 216.756 28.7965 216.718 30.6148C216.718 33.331 215.989 36.119 214.285 38.2734C212.689 40.3651 210.251 41.7097 207.67 42.14C205.15 42.5479 202.487 42.4388 200.093 41.4991C197.641 40.5243 195.676 38.6176 194.627 36.1966C193.562 33.7509 193.45 30.9988 193.782 28.3857C194.113 25.7726 195.313 23.2177 197.33 21.4801C198.982 20.0294 201.11 19.2076 203.275 18.9298V18.9312Z" fill="#777777"/>
<path d="M145.499 19.6917C146.984 18.7953 148.871 18.7251 150.493 19.2704C150.493 21.0633 150.493 22.8562 150.493 24.649C149.41 23.9651 148.13 23.6641 146.856 23.7944C145.329 23.9677 144.119 25.1391 143.491 26.4837C142.81 27.9076 142.682 29.5182 142.725 31.075C142.725 34.6608 142.725 38.2465 142.725 41.8323H137.421C137.421 34.341 137.421 26.8493 137.421 19.3571C139.191 19.3347 140.962 19.3436 142.732 19.3571C142.732 20.6435 142.732 21.9298 142.732 23.2177C143.308 21.8178 144.164 20.4582 145.513 19.6947L145.499 19.6917Z" fill="#777777"/>
<path d="M106.897 19.354C108.681 19.354 110.467 19.3286 112.251 19.363C112.23 26.8527 112.251 34.3439 112.242 41.8337H106.9C106.9 34.3405 106.9 26.8472 106.9 19.354H106.897Z" fill="#777777"/>
<path d="M161.998 23.2087C163.615 23.1026 165.336 23.5598 166.498 24.7356C167.742 25.9578 168.223 27.7312 168.356 29.4225C168.451 31.2737 168.375 33.2025 167.598 34.9177C167.09 36.0949 166.141 37.0267 164.955 37.5144C163.548 38.0299 162.017 38.0973 160.57 37.7071C159.844 37.5058 159.169 37.1541 158.588 36.6748C158.007 36.1955 157.533 35.5994 157.198 34.9252C156.331 33.195 156.201 31.19 156.381 29.297C156.544 27.5714 157.144 25.7964 158.459 24.6057C159.412 23.7092 160.712 23.2804 161.998 23.2087Z" fill="#FEFEFE"/>
<path d="M204.727 23.2132C206.247 23.1071 207.865 23.4582 209.037 24.4847C210.115 25.3811 210.711 26.7168 210.98 28.0704C211.278 29.6568 211.294 31.2836 211.025 32.8753C210.818 34.0586 210.409 35.2389 209.634 36.1757C208.858 37.1125 207.691 37.6907 206.496 37.867C205.208 38.0597 203.852 37.9671 202.647 37.4486C201.347 36.8988 200.34 35.7738 199.809 34.4799C199.171 32.9381 199.044 31.2303 199.171 29.5809C199.293 27.9837 199.746 26.3448 200.801 25.0987C201.763 23.9393 203.239 23.3058 204.727 23.2147V23.2132Z" fill="#FEFEFE"/>
<path d="M239.533 23.6899C241.314 23.6899 243.096 23.6421 244.877 23.7153V37.1619C243.698 37.9507 242.07 38.2645 240.786 37.5458C240.02 37.123 239.723 36.2176 239.624 35.4004C239.461 34.0139 239.564 32.6154 239.536 31.2245C239.536 28.7114 239.536 26.1999 239.536 23.6884L239.533 23.6899Z" fill="#FEFEFE"/>
<path d="M0 27.4146C8.29205 27.4146 16.5841 27.4146 24.8762 27.4146C24.8762 35.7066 24.8762 43.9982 24.8762 52.2892H0V27.4146Z" fill="#02A4EF"/>
<path d="M27.4176 27.4175C35.7086 27.4175 44.0002 27.4175 52.2922 27.4175V52.2922H27.4161C27.4161 44.0001 27.4161 35.7085 27.4161 27.4175H27.4176Z" fill="#FFB902"/>
</g>
<defs>
<clipPath id="clip0_2260_6263">
<rect width="245" height="52" fill="white"/>
</clipPath>
</defs>
</svg>
