<svg width="128" height="49" viewBox="0 0 128 49" fill="none" xmlns="http://www.w3.org/2000/svg">
<g clip-path="url(#clip0_2258_6126)">
<path d="M87.639 35.4634C87.639 35.8493 87.9752 36.1892 88.3562 36.1892H90.6035V16.4521L87.639 17.9507V35.4634Z" fill="black"/>
<path d="M105.707 22.2056C103.316 22.2056 100.83 23.4659 99.5879 25.3032V35.4632C99.5879 35.849 99.9241 36.1889 100.305 36.1889H102.552V26.5127C103.267 25.5947 104.416 25.0141 105.707 25.0141C107.762 25.0141 109.242 26.6578 109.242 28.835V36.1889H112.158V28.7382C112.16 25.0141 109.386 22.2056 105.707 22.2056Z" fill="black"/>
<path d="M57.24 31.6399V25.2548H61.0633V22.5938H57.24V18.4839L54.2755 19.9825V32.2725C54.2755 34.7871 55.7571 36.1913 58.3866 36.1913H62.2099V33.6271H59.1523C57.7165 33.6259 57.24 33.0913 57.24 31.6399Z" fill="black"/>
<path d="M70.5278 22.353C67.9951 22.353 65.3184 23.7077 63.9795 25.6913V40.5902C63.9795 40.9785 64.3133 41.3159 64.6967 41.3159H66.9416V26.9008C67.6588 25.8352 68.9978 25.1579 70.4794 25.1579C72.7727 25.1579 74.4467 26.9008 74.4467 29.3671C74.4467 31.7873 72.7727 33.6258 70.4794 33.6258H68.3761V36.19H70.5278C74.4951 36.19 77.41 33.3355 77.41 29.3683C77.4088 25.3514 74.4467 22.353 70.5278 22.353Z" fill="black"/>
<path d="M96.5786 36.1888V22.5938H93.614V35.4631C93.614 35.8489 93.9503 36.1888 94.3313 36.1888H96.5786Z" fill="black"/>
<path d="M127.121 36.1892L120.859 29.03L126.451 22.5941H122.959L117.944 28.5933V16.4521L114.979 17.9507V35.4163C114.979 35.8505 115.313 36.1904 115.696 36.1904H117.944V29.417L123.487 36.1904H127.121V36.1892Z" fill="black"/>
<path d="M80.9951 30.8683H85.0107V27.8674H79.5606L80.9951 30.8683Z" fill="black"/>
<path d="M95.0957 16.1604C93.9974 16.1604 93.0879 17.0325 93.0879 18.144C93.0879 18.6762 93.2778 19.1104 93.6128 19.4503H96.5773C96.9112 19.1104 97.1023 18.6762 97.1023 18.144C97.1035 17.0313 96.1951 16.1604 95.0957 16.1604Z" fill="black"/>
<path d="M30.4249 0C20.4354 0 12.455 8.03124 12.455 17.9481V21.7714H22.4904V17.9481C22.4904 13.6434 25.9799 10.16 30.4249 10.16C34.8215 10.16 37.8816 13.2552 37.8816 17.8514C37.8816 22.4004 34.5832 25.7387 30.1842 25.7387H26.4093V35.8962H30.1842C39.985 35.8962 47.9194 27.819 47.9194 17.8502C47.9194 7.49905 40.5111 0 30.4249 0Z" fill="#4ACBD6"/>
<path d="M0.12146 33.6733C0.12146 34.9312 1.17254 36.1891 2.60582 36.1891H12.1659V45.8665C12.1659 47.1244 13.217 48.3823 14.6503 48.3823H22.8242V25.4001H0.12146V33.6733Z" fill="#4ACBD6"/>
</g>
<defs>
<clipPath id="clip0_2258_6126">
<rect width="127" height="48.381" fill="white" transform="translate(0.12146)"/>
</clipPath>
</defs>
</svg>
